<mxfile host="Electron" modified="2024-02-21T14:08:48.326Z" agent="Mozilla/5.0 (Windows NT 10.0; Win64; x64) AppleWebKit/537.36 (KHTML, like Gecko) draw.io/22.1.18 Chrome/120.0.6099.199 Electron/28.1.2 Safari/537.36" etag="U5hPB6JRhnF6_HS7f2bz" version="22.1.18" type="device">
  <diagram name="Page-1" id="zORE4qHWoBSUlIPuWkxU">
    <mxGraphModel dx="1543" dy="418" grid="1" gridSize="10" guides="1" tooltips="1" connect="1" arrows="1" fold="1" page="1" pageScale="1" pageWidth="827" pageHeight="1169" math="0" shadow="0">
      <root>
        <mxCell id="0" />
        <mxCell id="1" parent="0" />
        <mxCell id="nHS9-a7cY24uqs029scO-3" style="edgeStyle=orthogonalEdgeStyle;rounded=0;orthogonalLoop=1;jettySize=auto;html=1;exitX=1;exitY=0.5;exitDx=0;exitDy=0;exitPerimeter=0;endArrow=oval;endFill=1;" edge="1" parent="1" source="nHS9-a7cY24uqs029scO-1">
          <mxGeometry relative="1" as="geometry">
            <mxPoint x="600" y="80.04761904761904" as="targetPoint" />
          </mxGeometry>
        </mxCell>
        <mxCell id="nHS9-a7cY24uqs029scO-5" style="edgeStyle=orthogonalEdgeStyle;rounded=0;orthogonalLoop=1;jettySize=auto;html=1;exitX=0;exitY=0.75;exitDx=0;exitDy=0;exitPerimeter=0;endArrow=oval;endFill=1;" edge="1" parent="1" source="nHS9-a7cY24uqs029scO-1">
          <mxGeometry relative="1" as="geometry">
            <mxPoint x="520" y="240" as="targetPoint" />
            <Array as="points">
              <mxPoint x="400" y="95" />
              <mxPoint x="400" y="180" />
              <mxPoint x="521" y="180" />
              <mxPoint x="521" y="240" />
            </Array>
          </mxGeometry>
        </mxCell>
        <mxCell id="nHS9-a7cY24uqs029scO-1" value="" style="verticalLabelPosition=bottom;shadow=0;dashed=0;align=center;html=1;verticalAlign=top;shape=mxgraph.electrical.logic_gates.logic_gate;operation=or;negating=1;negSize=0.15;" vertex="1" parent="1">
          <mxGeometry x="420" y="50" width="100" height="60" as="geometry" />
        </mxCell>
        <mxCell id="nHS9-a7cY24uqs029scO-4" style="edgeStyle=orthogonalEdgeStyle;rounded=0;orthogonalLoop=1;jettySize=auto;html=1;exitX=1;exitY=0.5;exitDx=0;exitDy=0;exitPerimeter=0;endArrow=oval;endFill=1;" edge="1" parent="1" source="nHS9-a7cY24uqs029scO-2">
          <mxGeometry relative="1" as="geometry">
            <mxPoint x="600" y="240.04761904761904" as="targetPoint" />
          </mxGeometry>
        </mxCell>
        <mxCell id="nHS9-a7cY24uqs029scO-6" style="edgeStyle=orthogonalEdgeStyle;rounded=0;orthogonalLoop=1;jettySize=auto;html=1;exitX=0;exitY=0.25;exitDx=0;exitDy=0;exitPerimeter=0;endArrow=oval;endFill=1;" edge="1" parent="1" source="nHS9-a7cY24uqs029scO-2">
          <mxGeometry relative="1" as="geometry">
            <mxPoint x="520" y="80" as="targetPoint" />
            <Array as="points">
              <mxPoint x="410" y="225" />
              <mxPoint x="410" y="140" />
              <mxPoint x="521" y="140" />
              <mxPoint x="521" y="80" />
            </Array>
          </mxGeometry>
        </mxCell>
        <mxCell id="nHS9-a7cY24uqs029scO-2" value="" style="verticalLabelPosition=bottom;shadow=0;dashed=0;align=center;html=1;verticalAlign=top;shape=mxgraph.electrical.logic_gates.logic_gate;operation=or;negating=1;negSize=0.15;" vertex="1" parent="1">
          <mxGeometry x="420" y="210" width="100" height="60" as="geometry" />
        </mxCell>
        <mxCell id="nHS9-a7cY24uqs029scO-7" value="" style="verticalLabelPosition=bottom;shadow=0;dashed=0;align=center;html=1;verticalAlign=top;shape=mxgraph.electrical.logic_gates.logic_gate;operation=and;" vertex="1" parent="1">
          <mxGeometry x="220" y="50" width="100" height="60" as="geometry" />
        </mxCell>
        <mxCell id="nHS9-a7cY24uqs029scO-8" value="" style="verticalLabelPosition=bottom;shadow=0;dashed=0;align=center;html=1;verticalAlign=top;shape=mxgraph.electrical.logic_gates.logic_gate;operation=and;" vertex="1" parent="1">
          <mxGeometry x="220" y="210" width="100" height="60" as="geometry" />
        </mxCell>
        <mxCell id="nHS9-a7cY24uqs029scO-9" style="edgeStyle=orthogonalEdgeStyle;rounded=0;orthogonalLoop=1;jettySize=auto;html=1;exitX=1;exitY=0.5;exitDx=0;exitDy=0;exitPerimeter=0;entryX=0;entryY=0.25;entryDx=0;entryDy=0;entryPerimeter=0;endArrow=none;endFill=0;" edge="1" parent="1" source="nHS9-a7cY24uqs029scO-7" target="nHS9-a7cY24uqs029scO-1">
          <mxGeometry relative="1" as="geometry" />
        </mxCell>
        <mxCell id="nHS9-a7cY24uqs029scO-10" style="edgeStyle=orthogonalEdgeStyle;rounded=0;orthogonalLoop=1;jettySize=auto;html=1;exitX=1;exitY=0.5;exitDx=0;exitDy=0;exitPerimeter=0;entryX=0;entryY=0.75;entryDx=0;entryDy=0;entryPerimeter=0;endArrow=none;endFill=0;" edge="1" parent="1" source="nHS9-a7cY24uqs029scO-8" target="nHS9-a7cY24uqs029scO-2">
          <mxGeometry relative="1" as="geometry" />
        </mxCell>
        <mxCell id="nHS9-a7cY24uqs029scO-11" style="edgeStyle=orthogonalEdgeStyle;rounded=0;orthogonalLoop=1;jettySize=auto;html=1;exitX=0;exitY=0.25;exitDx=0;exitDy=0;exitPerimeter=0;entryX=0;entryY=0.75;entryDx=0;entryDy=0;entryPerimeter=0;endArrow=none;endFill=0;" edge="1" parent="1" source="nHS9-a7cY24uqs029scO-8" target="nHS9-a7cY24uqs029scO-7">
          <mxGeometry relative="1" as="geometry" />
        </mxCell>
        <mxCell id="nHS9-a7cY24uqs029scO-12" value="" style="endArrow=oval;html=1;rounded=0;endFill=1;startArrow=oval;startFill=1;" edge="1" parent="1">
          <mxGeometry width="50" height="50" relative="1" as="geometry">
            <mxPoint x="160" y="160" as="sourcePoint" />
            <mxPoint x="200" y="160" as="targetPoint" />
          </mxGeometry>
        </mxCell>
        <mxCell id="nHS9-a7cY24uqs029scO-13" value="En" style="text;html=1;align=center;verticalAlign=middle;resizable=0;points=[];autosize=1;strokeColor=none;fillColor=none;" vertex="1" parent="1">
          <mxGeometry x="110" y="140" width="40" height="30" as="geometry" />
        </mxCell>
        <mxCell id="nHS9-a7cY24uqs029scO-17" value="" style="verticalLabelPosition=bottom;shadow=0;dashed=0;align=center;html=1;verticalAlign=top;shape=mxgraph.electrical.logic_gates.inverter_2" vertex="1" parent="1">
          <mxGeometry x="50" y="40" width="100" height="60" as="geometry" />
        </mxCell>
        <mxCell id="nHS9-a7cY24uqs029scO-18" style="edgeStyle=orthogonalEdgeStyle;rounded=0;orthogonalLoop=1;jettySize=auto;html=1;exitX=1;exitY=0.5;exitDx=0;exitDy=0;exitPerimeter=0;entryX=0;entryY=0.25;entryDx=0;entryDy=0;entryPerimeter=0;" edge="1" parent="1" source="nHS9-a7cY24uqs029scO-17" target="nHS9-a7cY24uqs029scO-7">
          <mxGeometry relative="1" as="geometry" />
        </mxCell>
        <mxCell id="nHS9-a7cY24uqs029scO-19" style="edgeStyle=orthogonalEdgeStyle;rounded=0;orthogonalLoop=1;jettySize=auto;html=1;exitX=0;exitY=0.75;exitDx=0;exitDy=0;exitPerimeter=0;entryX=0;entryY=0.5;entryDx=0;entryDy=0;entryPerimeter=0;endArrow=none;endFill=0;" edge="1" parent="1" source="nHS9-a7cY24uqs029scO-8" target="nHS9-a7cY24uqs029scO-17">
          <mxGeometry relative="1" as="geometry">
            <Array as="points">
              <mxPoint x="50" y="255" />
            </Array>
          </mxGeometry>
        </mxCell>
        <mxCell id="nHS9-a7cY24uqs029scO-20" value="" style="endArrow=none;html=1;rounded=0;" edge="1" parent="1">
          <mxGeometry width="50" height="50" relative="1" as="geometry">
            <mxPoint x="20" y="190" as="sourcePoint" />
            <mxPoint x="50" y="190" as="targetPoint" />
          </mxGeometry>
        </mxCell>
        <mxCell id="nHS9-a7cY24uqs029scO-21" value="D" style="text;html=1;align=center;verticalAlign=middle;resizable=0;points=[];autosize=1;strokeColor=none;fillColor=none;" vertex="1" parent="1">
          <mxGeometry x="-5" y="180" width="30" height="30" as="geometry" />
        </mxCell>
        <mxCell id="nHS9-a7cY24uqs029scO-22" value="D&#39;" style="text;html=1;align=center;verticalAlign=middle;resizable=0;points=[];autosize=1;strokeColor=none;fillColor=none;" vertex="1" parent="1">
          <mxGeometry x="165" y="40" width="30" height="30" as="geometry" />
        </mxCell>
        <mxCell id="nHS9-a7cY24uqs029scO-23" value="R" style="text;html=1;align=center;verticalAlign=middle;resizable=0;points=[];autosize=1;strokeColor=none;fillColor=none;" vertex="1" parent="1">
          <mxGeometry x="335" y="48" width="30" height="30" as="geometry" />
        </mxCell>
        <mxCell id="nHS9-a7cY24uqs029scO-24" value="C" style="text;html=1;align=center;verticalAlign=middle;resizable=0;points=[];autosize=1;strokeColor=none;fillColor=none;" vertex="1" parent="1">
          <mxGeometry x="195" y="150" width="30" height="30" as="geometry" />
        </mxCell>
        <mxCell id="nHS9-a7cY24uqs029scO-25" value="S" style="text;html=1;align=center;verticalAlign=middle;resizable=0;points=[];autosize=1;strokeColor=none;fillColor=none;" vertex="1" parent="1">
          <mxGeometry x="345" y="218" width="30" height="30" as="geometry" />
        </mxCell>
        <mxCell id="nHS9-a7cY24uqs029scO-26" value="Q" style="text;html=1;align=center;verticalAlign=middle;resizable=0;points=[];autosize=1;strokeColor=none;fillColor=none;" vertex="1" parent="1">
          <mxGeometry x="605" y="68" width="30" height="30" as="geometry" />
        </mxCell>
        <mxCell id="nHS9-a7cY24uqs029scO-27" value="Q&#39;" style="text;html=1;align=center;verticalAlign=middle;resizable=0;points=[];autosize=1;strokeColor=none;fillColor=none;" vertex="1" parent="1">
          <mxGeometry x="590" y="218" width="40" height="30" as="geometry" />
        </mxCell>
      </root>
    </mxGraphModel>
  </diagram>
</mxfile>
